<svg width="1278" height="1278" viewBox="0 0 1278 1278" fill="none" xmlns="http://www.w3.org/2000/svg">
<mask id="path-1-inside-1_2_53" fill="white">
<path d="M1199.5 78.5C1249.76 128.763 1278 196.934 1278 268.016V991.206C1278 1067.27 1247.78 1140.22 1194 1194C1140.22 1247.78 1067.27 1278 991.206 1278H284.003C208.681 1278 136.444 1248.08 83.1826 1194.82C29.9217 1141.56 0 1069.32 0 993.997V265.225C0 194.883 27.9433 127.422 77.6826 77.6826C127.422 27.9433 194.883 0 265.225 0H1009.98C1081.07 0 1149.24 28.2373 1199.5 78.5Z"/>
</mask>
<path d="M1199.5 78.5C1249.76 128.763 1278 196.934 1278 268.016V991.206C1278 1067.27 1247.78 1140.22 1194 1194C1140.22 1247.78 1067.27 1278 991.206 1278H284.003C208.681 1278 136.444 1248.08 83.1826 1194.82C29.9217 1141.56 0 1069.32 0 993.997V265.225C0 194.883 27.9433 127.422 77.6826 77.6826C127.422 27.9433 194.883 0 265.225 0H1009.98C1081.07 0 1149.24 28.2373 1199.5 78.5Z" fill="#898989"/>
<path d="M1278 268.016H1258V991.206H1278H1298V268.016H1278ZM991.206 1278V1258H284.003V1278V1298H991.206V1278ZM0 993.997H20V265.225H0H-20V993.997H0ZM265.225 0V20H1009.98V0V-20H265.225V0ZM1009.98 0V20C1075.76 20 1138.85 46.1301 1185.36 92.6421L1199.5 78.5L1213.64 64.3579C1159.63 10.3444 1086.37 -20 1009.98 -20V0ZM77.6826 77.6826L91.8248 91.8248C137.813 45.8361 200.187 20 265.225 20V0V-20C189.579 -20 117.031 10.0504 63.5405 63.5405L77.6826 77.6826ZM0 265.225H20C20 200.187 45.8361 137.813 91.8248 91.8248L77.6826 77.6826L63.5405 63.5405C10.0504 117.031 -20 189.579 -20 265.225H0ZM83.1826 1194.82L97.3248 1180.68C47.8146 1131.17 20 1064.01 20 993.997H0H-20C-20 1074.62 12.0288 1151.95 69.0405 1208.96L83.1826 1194.82ZM284.003 1278V1258C213.985 1258 146.835 1230.19 97.3248 1180.68L83.1826 1194.82L69.0405 1208.96C126.052 1265.97 203.377 1298 284.003 1298V1278ZM1194 1194L1179.86 1179.86C1129.82 1229.89 1061.96 1258 991.206 1258V1278V1298C1072.57 1298 1150.61 1265.68 1208.14 1208.14L1194 1194ZM1278 991.206H1258C1258 1061.96 1229.89 1129.82 1179.86 1179.86L1194 1194L1208.14 1208.14C1265.68 1150.61 1298 1072.57 1298 991.206H1278ZM1278 268.016H1298C1298 191.629 1267.66 118.371 1213.64 64.3579L1199.5 78.5L1185.36 92.6421C1231.87 139.154 1258 202.238 1258 268.016H1278Z" fill="#494949" mask="url(#path-1-inside-1_2_53)"/>
<path d="M639 297C827.329 297 980 449.671 980 638C980 826.329 827.329 979 639 979C450.671 979 298 826.329 298 638C298 449.671 450.671 297 639 297Z" fill="#898989" stroke="#494949" stroke-width="20"/>
<mask id="path-4-inside-2_2_53" fill="white">
<path d="M604.42 550.308C612.306 559.066 624.61 561.903 636.381 561.316C645.181 560.877 653.955 558.462 660.503 552.566L791.916 434.242C806.691 420.938 829.454 422.131 842.757 436.906C856.061 451.682 854.868 474.444 840.093 487.748L732.396 584.719C719.149 596.647 716.516 615.999 717.638 633.79C719.077 656.602 710.456 679.83 692.15 696.312C660.341 724.952 611.338 722.384 582.698 690.576C567.952 674.199 561.479 653.263 563.012 632.895C564.181 617.349 562.372 600.75 551.94 589.164L448.188 473.936C436.178 460.597 437.255 440.048 450.593 428.037C463.932 416.027 484.482 417.104 496.492 430.443L604.42 550.308Z"/>
</mask>
<path d="M604.42 550.308C612.306 559.066 624.61 561.903 636.381 561.316C645.181 560.877 653.955 558.462 660.503 552.566L791.916 434.242C806.691 420.938 829.454 422.131 842.757 436.906C856.061 451.682 854.868 474.444 840.093 487.748L732.396 584.719C719.149 596.647 716.516 615.999 717.638 633.79C719.077 656.602 710.456 679.83 692.15 696.312C660.341 724.952 611.338 722.384 582.698 690.576C567.952 674.199 561.479 653.263 563.012 632.895C564.181 617.349 562.372 600.75 551.94 589.164L448.188 473.936C436.178 460.597 437.255 440.048 450.593 428.037C463.932 416.027 484.482 417.104 496.492 430.443L604.42 550.308Z" fill="#898989"/>
<path d="M692.15 696.312L705.532 711.175L705.532 711.175L692.15 696.312ZM582.698 690.576L567.835 703.959L567.835 703.959L582.698 690.576ZM496.492 430.443L481.63 443.825L496.492 430.443ZM717.638 633.79L737.598 632.531L717.638 633.79ZM660.503 552.566L673.886 567.429L805.298 449.105L791.916 434.242L778.533 419.379L647.121 537.703L660.503 552.566ZM840.093 487.748L826.71 472.885L719.014 569.856L732.396 584.719L745.779 599.582L853.476 502.611L840.093 487.748ZM717.638 633.79L697.678 635.048C698.748 652.027 692.342 669.227 678.767 681.45L692.15 696.312L705.532 711.175C728.57 690.432 739.405 661.177 737.598 632.531L717.638 633.79ZM692.15 696.312L678.767 681.449C655.167 702.698 618.81 700.793 597.561 677.194L582.698 690.576L567.835 703.959C603.867 743.975 665.516 747.206 705.532 711.175L692.15 696.312ZM582.698 690.576L597.561 677.194C586.619 665.041 581.816 649.543 582.955 634.395L563.012 632.895L543.068 631.394C541.143 656.982 549.285 683.356 567.835 703.959L582.698 690.576ZM551.94 589.164L566.803 575.782L463.051 460.553L448.188 473.936L433.325 487.319L537.077 602.547L551.94 589.164ZM496.492 430.443L481.63 443.825L589.557 563.691L604.42 550.308L619.283 536.926L511.355 417.06L496.492 430.443ZM450.593 428.037L463.976 442.9C469.106 438.281 477.01 438.695 481.63 443.825L496.492 430.443L511.355 417.06C491.954 395.513 458.758 393.773 437.211 413.174L450.593 428.037ZM448.188 473.936L463.051 460.553C458.432 455.423 458.846 447.519 463.976 442.9L450.593 428.037L437.211 413.174C415.663 432.576 413.924 465.771 433.325 487.319L448.188 473.936ZM563.012 632.895L582.955 634.395C584.241 617.3 582.867 593.623 566.803 575.782L551.94 589.164L537.077 602.547C541.876 607.877 544.121 617.398 543.068 631.394L563.012 632.895ZM732.396 584.719L719.014 569.856C698.624 588.215 696.465 615.827 697.678 635.048L717.638 633.79L737.598 632.531C736.566 616.171 739.674 605.079 745.779 599.582L732.396 584.719ZM842.757 436.906L827.895 450.289C833.807 456.856 833.277 466.973 826.71 472.885L840.093 487.748L853.476 502.611C876.459 481.916 878.315 446.508 857.62 423.524L842.757 436.906ZM791.916 434.242L805.298 449.105C811.865 443.192 821.982 443.722 827.895 450.289L842.757 436.906L857.62 423.524C836.926 400.54 801.517 398.684 778.533 419.379L791.916 434.242ZM636.381 561.316L637.378 581.291C648.792 580.721 662.692 577.508 673.886 567.429L660.503 552.566L647.121 537.703C645.219 539.415 641.569 541.032 635.384 541.341L636.381 561.316ZM636.381 561.316L635.384 541.341C626.693 541.775 621.522 539.413 619.283 536.926L604.42 550.308L589.557 563.691C603.089 578.72 622.528 582.032 637.378 581.291L636.381 561.316Z" fill="#494949" mask="url(#path-4-inside-2_2_53)"/>
<rect x="624.735" y="1058" width="30" height="88" rx="15" fill="#898989" stroke="#494949" stroke-width="20"/>
<rect x="837.395" y="1020.66" width="30" height="88" rx="15" transform="rotate(-30 837.395 1020.66)" fill="#898989" stroke="#494949" stroke-width="20"/>
<rect x="1004.39" y="863.641" width="30" height="88" rx="15" transform="rotate(-60 1004.39 863.641)" fill="#898989" stroke="#494949" stroke-width="20"/>
<rect x="-13.6603" y="3.66025" width="30" height="88" rx="15" transform="matrix(-0.866026 -0.5 -0.5 0.866026 430.605 1010.66)" fill="#898989" stroke="#494949" stroke-width="20"/>
<rect x="-13.6603" y="-3.66025" width="30" height="88" rx="15" transform="matrix(-0.5 -0.866026 -0.866026 0.5 263.605 853.641)" fill="#898989" stroke="#494949" stroke-width="20"/>
<rect x="10" y="-10" width="30" height="88" rx="15" transform="matrix(1 0 0 -1 613.735 209)" fill="#898989" stroke="#494949" stroke-width="20"/>
<rect x="13.6603" y="-3.66025" width="30" height="88" rx="15" transform="matrix(0.866026 0.5 0.5 -0.866026 826.395 246.34)" fill="#898989" stroke="#494949" stroke-width="20"/>
<rect x="13.6603" y="3.66025" width="30" height="88" rx="15" transform="matrix(0.5 0.866026 0.866026 -0.5 993.395 403.359)" fill="#898989" stroke="#494949" stroke-width="20"/>
<rect x="439.605" y="256.34" width="30" height="88" rx="15" transform="rotate(150 439.605 256.34)" fill="#898989" stroke="#494949" stroke-width="20"/>
<rect x="272.605" y="413.359" width="30" height="88" rx="15" transform="rotate(120 272.605 413.359)" fill="#898989" stroke="#494949" stroke-width="20"/>
<rect x="133" y="652.651" width="30" height="88" rx="15" transform="rotate(-90 133 652.651)" fill="#898989" stroke="#494949" stroke-width="20"/>
<rect x="1057" y="652.651" width="30" height="88" rx="15" transform="rotate(-90 1057 652.651)" fill="#898989" stroke="#494949" stroke-width="20"/>
</svg>
